<svg width="104" height="77" viewBox="0 0 104 77" fill="none" xmlns="http://www.w3.org/2000/svg">
<path d="M85.4119 44.0258C87.218 48.7811 88.2069 53.9388 88.2069 59.3276C88.2069 83.1329 68.9088 102.431 45.1035 102.431C21.2981 102.431 2 83.1329 2 59.3276C2 35.5222 21.2981 16.2241 45.1035 16.2241C50.9019 16.2241 56.4329 17.3691 61.4828 19.4452" stroke="#C8DBED" stroke-width="3"/>
<path d="M14.931 59.3276C14.931 75.9913 28.4397 89.5 45.1034 89.5C61.7672 89.5 75.2759 75.9913 75.2759 59.3276C75.2759 42.6638 61.7672 29.1552 45.1034 29.1552C39.5185 29.1552 34.288 30.6725 29.8017 33.3175" stroke="#C8DBED" stroke-width="3"/>
<path d="M62.3448 59.3276C62.3448 49.8054 54.6256 42.0862 45.1034 42.0862C35.5813 42.0862 27.862 49.8054 27.862 59.3276C27.862 68.8497 35.5813 76.569 45.1034 76.569C48.2948 76.569 51.2836 75.7019 53.8473 74.1905" stroke="#C8DBED" stroke-width="3"/>
<path d="M42.7497 59.3445C42.1639 59.9303 42.1639 60.88 42.7497 61.4658C43.3355 62.0516 44.2852 62.0516 44.871 61.4658L42.7497 59.3445ZM44.871 61.4658L84.5262 21.8107L82.4049 19.6893L42.7497 59.3445L44.871 61.4658Z" fill="#E9807C"/>
<circle cx="91.0087" cy="12.9914" r="10.9914" stroke="#E9807C" stroke-width="3"/>
</svg>
