<svg viewBox="0 0 100 100" fill="none" xmlns="http://www.w3.org/2000/svg">
<g clip-path="url(#clip0_25_462)">
<path d="M55.8242 0.426424C57.9688 0.0342256 61.4471 0.37894 61.904 0.426424C66.9013 0.945216 71.1193 3.14916 74.7099 6.79144C82.1669 14.3555 89.6935 21.8516 97.2735 29.2921C99.109 31.0938 99.9332 33.1324 99.9335 35.6194V99.9721H34.8951C32.738 99.9692 30.933 99.2782 29.3739 97.7041C21.6062 89.8619 13.7053 82.1487 6.06443 74.1859C4.20025 72.2435 2.47483 69.6512 1.39648 67.1383C0.43062 64.8877 -0.292618 60.08 0.116778 57.3438C0.362835 54.8326 1.15419 50.9973 2.02601 48.6511C5.99513 37.9705 10.1349 27.3539 14.1614 16.6946C14.6197 15.481 15.2894 14.756 16.5251 14.3446C29.7117 9.95142 42.1312 3.39278 55.8242 0.426424Z" fill="#AD1F23"/>
<path d="M99.9337 99.9715H99.4852L96.9961 99.969L99.9337 99.9558V99.9715Z" fill="#AD1F23"/>
<path d="M99.9337 99.9564V89.4111L99.9363 89.4135L99.9337 99.9564Z" fill="#8E191B"/>
<path d="M96.9958 99.969L89.5349 99.9623L15.4245 15.407L99.9337 89.4104V99.9557L96.9961 99.969H96.9958Z" fill="#8E191B"/>
<path d="M22.8964 58.7842H25.8144C31.3049 58.7842 32.6102 53.5627 32.6102 48.9167C32.6102 45.7299 32.1109 43.2728 31.0361 41.6219C29.9608 39.9326 28.3099 39.0496 25.661 39.0496H22.8964V58.7842ZM18.2124 34.7109H25.7376C29.8074 34.7109 32.7639 36.0546 34.7602 38.8573C36.4881 41.3147 37.4098 44.8088 37.4098 48.9167C37.4098 57.8628 33.0327 63.1226 25.8914 63.1226H18.2124V34.7109Z" fill="#8E191B"/>
<path d="M47.6226 41.2762L45.1653 52.257H50.08L47.6226 41.2762ZM42.2473 63.1226H37.4867L45.3576 34.7109H49.7728L57.874 63.1226H53.1131L51.3084 56.5573H44.0136L42.2473 63.1226Z" fill="#8E191B"/>
<path d="M60.4075 34.7109H67.0113C71.1196 34.7109 73.3466 35.6323 74.5368 36.8995C76.1493 38.5504 77.0707 40.7389 77.0707 43.5801C77.0707 45.1926 76.8019 46.8435 76.0724 48.1873C75.1126 50.0304 73.7689 51.1822 72.118 51.7579L77.6084 63.1226H72.3483L66.0899 49.1471C66.6275 49.1471 66.9347 49.1471 67.357 49.1086C68.7392 49.0702 69.9679 48.7248 70.8508 47.8803C71.8876 46.8435 72.2714 45.423 72.2714 44.0023C72.2714 42.4664 71.926 40.9309 70.6205 39.894C69.7375 39.203 68.4319 39.0496 66.8579 39.0496H65.0916V63.1226H60.4075V34.7109Z" fill="#8E191B"/>
<path d="M83.6361 39.0496H78.4914V34.7109H93.4651V39.0496H88.3204V63.1226H83.6361V39.0496Z" fill="#8E191B"/>
<path d="M21.7642 57.6517H24.6819C30.1723 57.6517 31.4779 52.4301 31.4779 47.7846C31.4779 44.5976 30.9788 42.1403 29.9035 40.4893C28.8286 38.8 27.1777 37.917 24.5284 37.917H21.7642V57.6517ZM17.0799 33.5787H24.6054C28.6752 33.5787 31.6314 34.9224 33.628 37.7251C35.3559 40.1821 36.2773 43.6763 36.2773 47.7846C36.2773 56.7303 31.9002 61.9904 24.7588 61.9904H17.0799V33.5787Z" fill="white"/>
<path d="M46.4901 40.144L44.0331 51.1248H48.9475L46.4901 40.144ZM41.1151 61.9904H36.3542L44.225 33.5787H48.6403L56.7414 61.9904H51.9805L50.1762 55.4247H42.881L41.1151 61.9904Z" fill="white"/>
<path d="M59.2753 33.5787H65.8791C69.9874 33.5787 72.2141 34.5002 73.4043 35.7669C75.0168 37.4179 75.9382 39.6064 75.9382 42.4476C75.9382 44.0601 75.6697 45.711 74.9403 47.0547C73.9804 48.8978 72.6363 50.0497 70.9854 50.6257L76.4758 61.9904H71.2158L64.9577 48.0148C65.495 48.0148 65.8022 48.0149 66.2245 47.9764C67.607 47.938 68.8353 47.5923 69.7183 46.7477C70.755 45.711 71.1392 44.2904 71.1392 42.8698C71.1392 41.3342 70.7935 39.7983 69.4882 38.7619C68.6049 38.0705 67.2997 37.917 65.7253 37.917H63.9594V61.9904H59.2753V33.5787Z" fill="white"/>
<path d="M82.5039 37.917H77.3588V33.5787H92.3326V37.917H87.1879V61.9904H82.5039V37.917Z" fill="white"/>
<path d="M27.9188 74.6414C27.2756 76.8282 25.2174 78.3865 22.7444 78.3865C19.5138 78.3865 17.198 75.8278 17.198 72.8831C17.198 70.0671 19.3851 67.4084 22.73 67.4084C25.7746 67.4227 27.5045 69.6669 27.9188 71.2105H25.6747C25.3461 70.4817 24.4026 69.2953 22.7157 69.281C20.6571 69.281 19.3278 71.0106 19.3278 72.8831C19.3278 74.8127 20.7145 76.5139 22.73 76.5139C24.6169 76.5139 25.4747 75.0273 25.6747 74.6414H27.9188Z" fill="#8E191B"/>
<path d="M31.0351 72.8974C31.0351 74.827 32.4213 76.5139 34.4799 76.5139C36.6244 76.5139 37.882 74.6557 37.882 72.9117C37.882 71.1392 36.6244 69.281 34.4655 69.281C32.35 69.281 31.0351 71.0249 31.0351 72.8831V72.8974ZM28.9049 72.9831C28.9049 69.5952 31.5065 67.4084 34.4512 67.4084C37.6534 67.4084 40.0119 69.8955 40.0119 72.8974C40.0119 75.8994 37.6678 78.3865 34.4368 78.3865C31.1924 78.3865 28.9049 75.8278 28.9049 72.9974V72.9831Z" fill="#8E191B"/>
<path d="M48.3026 74.9416L48.2599 67.6084H50.3038V78.1862H48.4169L43.5427 70.8676L43.5854 78.1862H41.5415V67.6084H43.4424L48.3026 74.9416Z" fill="#8E191B"/>
<path d="M59.0807 74.9416L59.0377 67.6084H61.0819V78.1862H59.195L54.3205 70.8676L54.3634 78.1862H52.3193V67.6084H54.2205L59.0807 74.9416Z" fill="#8E191B"/>
<path d="M63.0974 67.6084H69.0293V69.4809H65.2272V71.8823H68.958V73.7549H65.2272V76.3136H69.0293V78.1862H63.0974V67.6084Z" fill="#8E191B"/>
<path d="M80.9794 74.6414C80.3362 76.8282 78.2778 78.3865 75.805 78.3865C72.5741 78.3865 70.2586 75.8278 70.2586 72.8831C70.2586 70.0671 72.4455 67.4084 75.7907 67.4084C78.8353 67.4227 80.5648 69.6669 80.9794 71.2105H78.7353C78.4064 70.4817 77.4629 69.2953 75.7763 69.281C73.7179 69.281 72.3885 71.0106 72.3885 72.8831C72.3885 74.8127 73.7752 76.5139 75.7907 76.5139C77.6772 76.5139 78.5351 75.0273 78.7353 74.6414H80.9794Z" fill="#8E191B"/>
<path d="M83.8524 69.4809H81.5653V67.6084H88.255V69.4809H85.9822V78.1862H83.8524V69.4809Z" fill="#8E191B"/>
<path d="M27.3011 73.807C26.658 75.9941 24.5994 77.5524 22.1267 77.5524C18.8961 77.5524 16.5803 74.9937 16.5803 72.0491C16.5803 69.233 18.7675 66.5741 22.1123 66.5741C25.157 66.5883 26.8865 68.8328 27.3011 70.3765H25.057C24.728 69.6476 23.785 68.4612 22.098 68.447C20.0395 68.447 18.7102 70.1765 18.7102 72.0491C18.7102 73.9786 20.0968 75.6799 22.1123 75.6799C23.9992 75.6799 24.8567 74.1932 25.057 73.807H27.3011Z" fill="white"/>
<path d="M30.417 72.0634C30.417 73.9929 31.8037 75.6799 33.8623 75.6799C36.0064 75.6799 37.2644 73.8213 37.2644 72.0778C37.2644 70.3051 36.0064 68.447 33.8479 68.447C31.7324 68.447 30.417 70.1905 30.417 72.0491V72.0634ZM28.2872 72.1491C28.2872 68.7612 30.8889 66.5741 33.8336 66.5741C37.0358 66.5741 39.3942 69.0614 39.3942 72.0634C39.3942 75.065 37.0498 77.5524 33.8192 77.5524C30.5743 77.5524 28.2872 74.9937 28.2872 72.1633V72.1491Z" fill="white"/>
<path d="M47.6849 74.1072L47.6419 66.7743H49.6861V77.3522H47.7992L42.9247 70.0335L42.9677 77.3522H40.9235V66.7743H42.8248L47.6849 74.1072Z" fill="white"/>
<path d="M58.463 74.1072L58.4201 66.7743H60.4642V77.3522H58.5774L53.7028 70.0335L53.7455 77.3522H51.7016V66.7743H53.6025L58.463 74.1072Z" fill="white"/>
<path d="M62.4794 66.7743H68.4117V68.6469H64.6092V71.0483H68.3404V72.9209H64.6092V75.4796H68.4117V77.3522H62.4794V66.7743Z" fill="white"/>
<path d="M80.3618 73.807C79.7183 75.9941 77.6601 77.5524 75.187 77.5524C71.9565 77.5524 69.6407 74.9937 69.6407 72.0491C69.6407 69.233 71.8278 66.5741 75.1726 66.5741C78.2176 66.5883 79.9472 68.8328 80.3618 70.3765H78.1173C77.7888 69.6476 76.8453 68.4612 75.1584 68.447C73.1002 68.447 71.7705 70.1765 71.7705 72.0491C71.7705 73.9786 73.1571 75.6799 75.1726 75.6799C77.0596 75.6799 77.9174 74.1932 78.1173 73.807H80.3618Z" fill="white"/>
<path d="M83.2347 68.6469H80.9476V66.7743H87.6373V68.6469H85.3646V77.3522H83.2347V68.6469Z" fill="white"/>
</g>
<defs>
<clipPath id="clip0_25_462">
<rect width="100" height="100" fill="white"/>
</clipPath>
</defs>
</svg>
