<svg width="42" height="24" viewBox="0 0 42 24" fill="none" xmlns="http://www.w3.org/2000/svg">
<g clip-path="url(#clip0_25_220)">
<path d="M0.303101 0.0214844H4.44895C6.69401 0.0214844 8.32223 0.760277 9.41966 2.30242C10.3736 3.65807 10.8757 5.58036 10.8757 7.83977C10.8757 12.7674 8.46568 15.6652 4.53502 15.6652H0.303101V0.0214844ZM2.88529 13.2767H4.49198C7.51888 13.2767 8.23615 10.4004 8.23615 7.83977C8.23615 6.08245 7.96359 4.73398 7.36825 3.82304C6.77291 2.89775 5.86915 2.41001 4.40591 2.41001H2.88529V13.2767Z" fill="white"/>
<path d="M13.544 15.6652H10.9188L15.2583 0.0214844H17.6898L22.1513 15.6724H19.5261L18.5362 12.0502H14.5195L13.544 15.6652ZM16.5063 3.63655L15.1507 9.68317H17.8548L16.5063 3.63655Z" fill="white"/>
<path d="M23.5428 0.0214844H27.1794C29.4388 0.0214844 30.6653 0.530749 31.3252 1.22651C32.2146 2.13744 32.7239 3.34246 32.7239 4.90612C32.7239 5.79554 32.5733 6.70648 32.1716 7.44527C31.6408 8.4638 30.902 9.095 29.9911 9.4106L33.018 15.6724H30.1202L26.6701 7.97606C26.9642 7.97606 27.1363 7.97606 27.3659 7.95454C28.1262 7.93302 28.8004 7.74653 29.2882 7.2803C29.862 6.70648 30.07 5.92465 30.07 5.14282C30.07 4.29644 29.8763 3.45006 29.159 2.88341C28.6713 2.50325 27.954 2.41718 27.0861 2.41718H26.1106V15.6724H23.5284V0.0214844H23.5428Z" fill="white"/>
<path d="M36.339 2.41001H33.5057V0.0214844H41.7544V2.41001H38.9212V15.6652H36.339V2.41001Z" fill="white"/>
<path d="M5.97673 21.7191C5.63961 23.089 4.44893 24 3.04308 24C1.22837 24 -0.0125122 22.5511 -0.0125122 20.9803C-0.0125122 19.5027 1.12795 17.9821 3.02873 17.9821C4.84343 17.9821 5.81893 19.3879 5.97673 20.2917H4.42742C4.26244 19.8613 3.82491 19.2803 3.02156 19.2803C2.02455 19.2803 1.47225 20.1482 1.47225 20.9731C1.47225 21.8482 2.06758 22.6945 3.02873 22.6945C3.95401 22.6945 4.327 21.9199 4.42024 21.7119H5.97673V21.7191Z" fill="white"/>
<path d="M6.49316 21.052C6.49316 19.1584 7.94923 17.9821 9.54875 17.9821C11.3348 17.9821 12.6115 19.3736 12.6115 20.9874C12.6115 22.6013 11.3419 23.9928 9.54158 23.9928C7.71253 23.9928 6.49316 22.5439 6.49316 21.052ZM7.97792 20.9803C7.97792 21.8625 8.58043 22.6945 9.57744 22.6945C10.6247 22.6945 11.1339 21.7406 11.1339 20.9946C11.1339 20.2415 10.6247 19.2803 9.55593 19.2803C8.53022 19.2803 7.97075 20.1554 7.97075 20.9731V20.9803H7.97792Z" fill="white"/>
<path d="M16.9152 21.6258L16.8865 18.0896H18.3067V23.8852H17.0227L14.8064 20.392L14.8351 23.8852H13.4149V18.0896H14.6916L16.9152 21.6258Z" fill="white"/>
<path d="M22.8614 21.6258L22.8327 18.0896H24.2529V23.8852H22.969L20.7526 20.392L20.7813 23.8852H19.3611V18.0896H20.6378L22.8614 21.6258Z" fill="white"/>
<path d="M25.3073 18.0896H28.5924V19.3879H26.7849V20.2916H28.535V21.5899H26.7849V22.5869H28.5852V23.8852H25.3001V18.0896H25.3073Z" fill="white"/>
<path d="M35.1913 21.7191C34.8542 23.089 33.6635 24 32.2577 24C30.443 24 29.2021 22.5511 29.2021 20.9803C29.2021 19.5027 30.3426 17.9821 32.2433 17.9821C34.058 17.9821 35.0335 19.3879 35.1913 20.2917H33.642C33.477 19.8613 33.0395 19.2803 32.2362 19.2803C31.2391 19.2803 30.6868 20.1482 30.6868 20.9731C30.6868 21.8482 31.2822 22.6945 32.2433 22.6945C33.1686 22.6945 33.5416 21.9199 33.6348 21.7119H35.1913V21.7191Z" fill="white"/>
<path d="M36.6617 19.3951H35.5212V18.0968H39.2798V19.3951H38.1465V23.8924H36.6689V19.3951H36.6617Z" fill="white"/>
<path d="M40.3629 3.98083H40.1764V3.8302H40.7143V3.98083H40.535V4.67658H40.3629V3.98083Z" fill="white"/>
<path d="M40.8076 4.67658V3.8302H41.0371L41.2523 4.43988L41.4675 3.8302H41.697V4.67658H41.5392L41.5464 3.99517L41.3097 4.67658H41.1949L40.9582 3.99517L40.9654 4.67658H40.8076Z" fill="white"/>
</g>
<defs>
<clipPath id="clip0_25_220">
<rect width="41.5087" height="24" fill="white" transform="translate(0.245728)"/>
</clipPath>
</defs>
</svg>
