<svg width="306" height="262" viewBox="0 0 306 262" fill="none" xmlns="http://www.w3.org/2000/svg">
<path d="M253.236 129.078C258.654 143.343 261.621 158.817 261.621 174.983C261.621 246.399 203.726 304.293 132.31 304.293C60.8942 304.293 3 246.399 3 174.983C3 103.567 60.8942 45.6724 132.31 45.6724C149.706 45.6724 166.299 49.1073 181.448 55.3357" stroke="#C8DBED" stroke-width="6"/>
<path d="M41.7931 174.983C41.7931 224.974 82.319 265.5 132.31 265.5C182.302 265.5 222.828 224.974 222.828 174.983C222.828 124.991 182.302 84.4655 132.31 84.4655C115.556 84.4655 99.8641 89.0177 86.4052 96.9527" stroke="#C8DBED" stroke-width="6"/>
<path d="M184.034 174.983C184.034 146.416 160.877 123.259 132.31 123.259C103.744 123.259 80.5862 146.416 80.5862 174.983C80.5862 203.549 103.744 226.707 132.31 226.707C141.884 226.707 150.851 224.106 158.542 219.571" stroke="#C8DBED" stroke-width="6"/>
<path d="M126.31 176.094C125.138 177.266 125.138 179.165 126.31 180.337C127.481 181.508 129.381 181.508 130.552 180.337L126.31 176.094ZM130.552 180.337L249.518 61.3713L245.275 57.1287L126.31 176.094L130.552 180.337Z" fill="#E9807C"/>
<circle cx="270.026" cy="35.9741" r="32.9741" stroke="#E9807C" stroke-width="6"/>
</svg>
